<svg width="656" height="674" viewBox="0 0 656 674" fill="none" xmlns="http://www.w3.org/2000/svg">
<circle cx="426.637" cy="484.882" r="31.2421" transform="rotate(38.3306 426.637 484.882)" fill="#FFDD0E" stroke="#FFDD0E" stroke-width="10"/>
<circle cx="209.231" cy="312.998" r="31.2421" transform="rotate(38.3306 209.231 312.998)" fill="#FFDD0E" stroke="#FFDD0E" stroke-width="10"/>
<circle cx="109.365" cy="279.902" r="27.2449" transform="rotate(38.3306 109.365 279.902)" fill="#FFDD0E" stroke="#FFDD0E" stroke-width="10"/>
<circle cx="6.66862" cy="261.555" r="42.9675" transform="rotate(38.3306 6.66862 261.555)" fill="#FFDD0E" stroke="#FFDD0E" stroke-width="10"/>
<path d="M492.181 556.664C502.783 565.046 504.597 580.163 496.505 590.398C488.413 600.633 473.285 602.355 462.683 593.974C452.082 585.592 450.268 570.474 458.36 560.239C466.452 550.004 481.579 548.282 492.181 556.664Z" fill="#FFDD0E" stroke="#FFDD0E" stroke-width="10"/>
<path d="M534.614 640.49C550.859 653.334 553.805 676.045 541.866 691.146C529.927 706.248 507.148 708.62 490.904 695.777C474.659 682.934 471.713 660.223 483.652 645.122C495.592 630.02 518.37 627.647 534.614 640.49Z" fill="#FFDD0E" stroke="#FFDD0E" stroke-width="10"/>
<rect x="297.262" y="328.091" width="40" height="146" transform="rotate(-8.67847 297.262 328.091)" stroke="#FFDD0E" stroke-width="10"/>
<rect x="397.194" y="366.452" width="40" height="146" transform="rotate(81.3215 397.194 366.452)" stroke="#FFDD0E" stroke-width="10"/>
</svg>
