<svg width="729" height="484" viewBox="0 0 729 484" fill="none" xmlns="http://www.w3.org/2000/svg">
<line x1="292.547" y1="186.426" x2="422.159" y2="221.156" stroke="#FFDD0E" stroke-width="35"/>
<line x1="338.033" y1="271.031" x2="372.762" y2="141.418" stroke="#FFDD0E" stroke-width="35"/>
<circle cx="468.687" cy="149.574" r="31.2421" transform="rotate(-30 468.687 149.574)" stroke="#FFDD0E" stroke-width="10"/>
<circle cx="228.673" cy="288.147" r="31.2421" transform="rotate(-30 228.673 288.147)" stroke="#FFDD0E" stroke-width="10"/>
<circle cx="161.04" cy="368.736" r="27.2449" transform="rotate(-30 161.04 368.736)" stroke="#FFDD0E" stroke-width="10"/>
<circle cx="106.07" cy="457.4" r="42.9675" transform="rotate(-30 106.07 457.4)" stroke="#FFDD0E" stroke-width="10"/>
<path d="M559.598 115.168C571.302 108.411 586.021 112.306 592.544 123.606C599.068 134.905 595.083 149.6 583.379 156.358C571.675 163.115 556.956 159.219 550.432 147.919C543.909 136.62 547.894 121.925 559.598 115.168Z" stroke="#FFDD0E" stroke-width="10"/>
<path d="M653.17 106.686C671.104 96.3322 693.298 101.98 702.924 118.652C712.549 135.324 706.343 157.368 688.409 167.723C670.475 178.076 648.281 172.429 638.656 155.757C629.03 139.085 635.236 117.041 653.17 106.686Z" stroke="#FFDD0E" stroke-width="10"/>
</svg>
